<?xml version="1.0" encoding="UTF-8" standalone="no"?>
<svg
   xmlns:dc="http://purl.org/dc/elements/1.1/"
   xmlns:cc="http://creativecommons.org/ns#"
   xmlns:rdf="http://www.w3.org/1999/02/22-rdf-syntax-ns#"
   xmlns:svg="http://www.w3.org/2000/svg"
   xmlns="http://www.w3.org/2000/svg"
   xmlns:sodipodi="http://sodipodi.sourceforge.net/DTD/sodipodi-0.dtd"
   xmlns:inkscape="http://www.inkscape.org/namespaces/inkscape"
   inkscape:export-ydpi="119.98"
   inkscape:export-xdpi="119.98"
   inkscape:export-filename="/Users/lizvillabona/Desktop/MI.png"
   sodipodi:docname="MI.svg"
   inkscape:version="1.0 (4035a4f, 2020-05-01)"
   id="svg8"
   version="1.1"
   viewBox="0 0 185.09961 122.14733"
   height="122.14733mm"
   width="185.09961mm">
  <defs
     id="defs2">
    <clipPath
       id="clipPath31"
       clipPathUnits="userSpaceOnUse">
      <g
         inkscape:label="Clip"
         id="use33">
        <path
           id="path1202"
           d="m 34.86722,162.83399 c -0.598753,-1.31679 -0.737931,-1.91375 -0.738847,-3.16904 -9.9e-4,-1.36817 0.383329,-2.64654 1.1333,-3.76963 0.548353,-0.82116 2.167157,-2.46511 2.900685,-2.94574 0.704969,-0.46191 0.520464,-0.0488 -0.426588,0.95511 -2.15582,2.28528 -3.272596,6.24014 -2.477943,8.77518 0.318591,1.01635 0.332357,1.1093 0.164283,1.1093 -0.06631,0 -0.316008,-0.42983 -0.55489,-0.95518 z m 18.364026,0.87011 c 0,-0.0468 0.417961,-0.5365 0.928805,-1.08826 1.63984,-1.77117 2.658062,-4.40705 2.662597,-6.89266 0.0019,-1.04043 -0.0648,-1.51229 -0.295054,-2.08729 -0.178835,-0.44661 -0.242724,-0.77682 -0.160165,-0.82785 0.178556,-0.11035 0.156057,-0.14486 0.660384,1.01294 0.533911,1.22571 0.72374,2.01811 0.728249,3.03991 0.0096,2.18476 -1.175147,4.35334 -3.365495,6.16004 -0.871117,0.71854 -1.159321,0.88838 -1.159321,0.68317 z m 30.031918,-0.87011 c -0.598752,-1.31679 -0.73793,-1.91375 -0.738846,-3.16904 -9.9e-4,-1.36817 0.383329,-2.64654 1.1333,-3.76963 0.548353,-0.82116 2.167156,-2.46511 2.900685,-2.94574 0.704969,-0.46191 0.520464,-0.0488 -0.426588,0.95511 -2.15582,2.28528 -3.272596,6.24014 -2.477943,8.77518 0.318591,1.01635 0.332357,1.1093 0.164283,1.1093 -0.06631,0 -0.316008,-0.42983 -0.554891,-0.95518 z m 8.599933,0.87011 c 0,-0.0468 0.417961,-0.5365 0.928804,-1.08826 1.63984,-1.77117 2.658063,-4.40705 2.662598,-6.89266 0.0019,-1.04043 -0.0648,-1.51229 -0.295054,-2.08729 -0.178836,-0.44661 -0.242724,-0.77682 -0.160165,-0.82785 0.178556,-0.11035 0.156057,-0.14486 0.660384,1.01294 0.533911,1.22571 0.72374,2.01811 0.728249,3.03991 0.0096,2.18476 -1.175147,4.35334 -3.365495,6.16004 -0.871118,0.71854 -1.159321,0.88838 -1.159321,0.68317 z m 30.031923,-0.87011 c -0.59876,-1.31679 -0.73794,-1.91375 -0.73885,-3.16904 -9.9e-4,-1.36817 0.38333,-2.64654 1.1333,-3.76963 0.54835,-0.82116 2.16716,-2.46511 2.90068,-2.94574 0.70497,-0.46191 0.52047,-0.0488 -0.42658,0.95511 -2.15582,2.28528 -3.2726,6.24014 -2.47795,8.77518 0.31859,1.01635 0.33236,1.1093 0.16429,1.1093 -0.0663,0 -0.31601,-0.42983 -0.55489,-0.95518 z m 7.89238,0.87011 c 0,-0.0468 0.41797,-0.5365 0.92881,-1.08826 1.63984,-1.77117 2.65806,-4.40705 2.6626,-6.89266 0.002,-1.04043 -0.0648,-1.51229 -0.29506,-2.08729 -0.17883,-0.44661 -0.24272,-0.77682 -0.16016,-0.82785 0.17855,-0.11035 0.15605,-0.14486 0.66038,1.01294 0.53391,1.22571 0.72374,2.01811 0.72825,3.03991 0.01,2.18476 -1.17515,4.35334 -3.36549,6.16004 -0.87112,0.71854 -1.15933,0.88838 -1.15933,0.68317 z m 27.9093,-0.87011 c -0.59876,-1.31679 -0.73794,-1.91375 -0.73885,-3.16904 -0.001,-1.36817 0.38332,-2.64654 1.1333,-3.76963 0.54835,-0.82116 2.16715,-2.46511 2.90069,-2.94574 0.70496,-0.46191 0.52045,-0.0488 -0.4266,0.95511 -2.15582,2.28528 -3.27259,6.24014 -2.47794,8.77518 0.31859,1.01635 0.33236,1.1093 0.16428,1.1093 -0.0663,0 -0.316,-0.42983 -0.55488,-0.95518 z m 18.50553,0.87011 c 0,-0.0468 0.41796,-0.5365 0.9288,-1.08826 1.63985,-1.77117 2.65806,-4.40705 2.6626,-6.89266 0.002,-1.04043 -0.0648,-1.51229 -0.29506,-2.08729 -0.17884,-0.44661 -0.24271,-0.77682 -0.16016,-0.82785 0.17856,-0.11035 0.15606,-0.14486 0.66038,1.01294 0.53391,1.22571 0.72375,2.01811 0.72826,3.03991 0.01,2.18476 -1.17516,4.35334 -3.3655,6.16004 -0.87111,0.71854 -1.15932,0.88838 -1.15932,0.68317 z M 44.685189,162.6959 c -0.05028,-0.0503 0.10084,-0.26703 0.335829,-0.48166 0.423908,-0.38718 0.557554,-0.87499 0.285746,-1.04298 -0.213745,-0.1321 -0.169598,-0.72033 0.06892,-0.91828 0.289394,-0.24017 0.871403,-0.0674 0.963849,0.28609 0.108066,0.41325 -0.122371,1.11434 -0.498728,1.51735 -0.384061,0.41125 -1.02768,0.76741 -1.155612,0.63948 z m 122.829471,0 c -0.0503,-0.0503 0.10084,-0.26703 0.33583,-0.48166 0.42392,-0.38718 0.55756,-0.87499 0.28575,-1.04298 -0.21375,-0.1321 -0.1696,-0.72033 0.0689,-0.91828 0.2894,-0.24017 0.87141,-0.0674 0.96385,0.28609 0.10807,0.41325 -0.12237,1.11434 -0.49872,1.51735 -0.38407,0.41125 -1.02768,0.76741 -1.15562,0.63948 z M 18.561637,161.10051 c 0,-0.0778 0.09252,-0.14151 0.205605,-0.14151 0.491715,0 0.927893,-0.34906 1.131467,-0.90547 0.337023,-0.92116 1.776117,-5.96469 1.776117,-6.22468 0,-0.14832 -0.157014,-0.26678 -0.424526,-0.32028 -0.770019,-0.154 -0.442302,-0.33254 0.610395,-0.33254 h 1.03492 l 0.319355,2.9363 c 0.175645,1.61497 0.347517,3.02319 0.381938,3.12938 0.03442,0.1062 1.065622,-1.19922 2.291558,-2.90092 l 2.228973,-3.09401 1.106871,-0.0416 c 0.74224,-0.0279 1.076806,0.007 1.015601,0.10613 -0.0502,0.0812 -0.236841,0.14768 -0.414759,0.14768 -0.177919,0 -0.435939,0.12426 -0.573379,0.27613 -0.283788,0.31358 -2.084585,6.29493 -2.025754,6.72855 0.02462,0.18149 0.203379,0.33159 0.4983,0.41841 0.856979,0.25229 0.465654,0.35989 -1.308955,0.35989 -1.084899,0 -1.768857,-0.0547 -1.768857,-0.14151 0,-0.0778 0.131543,-0.14151 0.29232,-0.14151 0.39637,0 0.802962,-0.23289 0.978174,-0.56028 0.179922,-0.33618 1.577004,-5.12991 1.513553,-5.19336 -0.02538,-0.0254 -1.028254,1.32248 -2.228609,2.99525 -1.974427,2.7515 -2.53931,3.38976 -2.535162,2.86452 0.0039,-0.49393 -0.622419,-5.70975 -0.695948,-5.79567 -0.04704,-0.055 -0.434148,1.11319 -0.860231,2.59592 -0.753087,2.62067 -0.767109,2.70141 -0.502716,2.89474 0.149589,0.10938 0.390924,0.19888 0.536302,0.19888 0.145376,0 0.224966,0.0637 0.176864,0.14151 -0.04831,0.0782 -0.685428,0.14151 -1.423437,0.14151 -0.796315,0 -1.33598,-0.0572 -1.33598,-0.14151 z m 10.18862,0.0157 c 0,-0.0692 0.227685,-0.16848 0.505966,-0.22068 0.419135,-0.0786 0.550661,-0.19475 0.766393,-0.6766 0.426552,-0.95274 1.892394,-6.27994 1.796651,-6.52945 -0.0495,-0.12898 -0.246198,-0.23049 -0.446661,-0.23049 -0.197016,0 -0.358212,-0.0637 -0.358212,-0.14151 0,-0.0858 0.613204,-0.1415 1.556595,-0.1415 1.49088,0 2.022638,0.15443 1.139764,0.331 -0.229255,0.0459 -0.480654,0.20263 -0.558662,0.34838 -0.230125,0.43 -1.854679,6.12356 -1.854679,6.50008 0,0.25347 0.1127,0.38761 0.424525,0.50532 0.23349,0.0881 0.424526,0.20995 0.424526,0.27072 0,0.0608 -0.764146,0.11049 -1.698103,0.11049 -0.933957,0 -1.698103,-0.0566 -1.698103,-0.12576 z m 7.641465,-0.005 c 0,-0.0717 0.205531,-0.17541 0.456737,-0.23059 0.32527,-0.0714 0.97323,-0.60744 2.25113,-1.86218 l 1.794395,-1.76186 -0.354522,-1.29377 c -0.518659,-1.89276 -0.728649,-2.35167 -1.121187,-2.45019 -0.759905,-0.19073 -0.249072,-0.33714 1.176252,-0.33714 0.905834,0 1.460134,0.0513 1.379709,0.12777 -0.07394,0.0703 -0.261791,0.15184 -0.41745,0.18125 -0.36086,0.0682 -0.362003,0.8099 -0.0031,2.01485 l 0.249611,0.83803 1.114946,-1.13761 c 1.134546,-1.15761 1.413405,-1.74128 0.831925,-1.74128 -0.155659,0 -0.283017,-0.0637 -0.283017,-0.14151 0,-0.0849 0.566034,-0.1415 1.415086,-0.1415 0.778298,0 1.415086,0.0301 1.415086,0.0668 0,0.0367 -0.306199,0.19854 -0.680442,0.35953 -0.468851,0.2017 -1.138645,0.75249 -2.153945,1.77126 l -1.473504,1.47853 0.346666,1.38125 c 0.463345,1.84614 0.791558,2.47417 1.378693,2.63811 0.865563,0.24168 0.459672,0.37049 -1.167446,0.37049 -0.895042,0 -1.627349,-0.0497 -1.627349,-0.11049 0,-0.0608 0.191037,-0.18259 0.424526,-0.27072 0.268027,-0.10117 0.420558,-0.25607 0.413761,-0.42018 -0.01453,-0.35075 -0.627548,-2.52859 -0.705569,-2.50662 -0.03408,0.01 -0.628662,0.59656 -1.321291,1.30438 -1.071017,1.09448 -1.232417,1.31935 -1.079366,1.50377 0.09898,0.11926 0.267685,0.21684 0.374899,0.21684 0.107216,0 0.194937,0.0637 0.194937,0.14151 0,0.0849 -0.566035,0.14151 -1.415086,0.14151 -0.778298,0 -1.415086,-0.0586 -1.415086,-0.13027 z m 12.452757,0.006 c 0,-0.0681 0.191,-0.16202 0.424445,-0.20871 0.554788,-0.11095 0.857816,-0.62521 1.34949,-2.29015 l 0.39276,-1.33 -0.323709,-1.10147 c -0.602959,-2.05166 -0.843167,-2.57959 -1.216305,-2.67325 -0.760849,-0.19096 -0.262849,-0.33858 1.142177,-0.33858 0.825745,0 1.48584,0.0587 1.48584,0.1321 0,0.0727 -0.175117,0.15226 -0.389148,0.17689 -0.542761,0.0625 -0.566073,0.53115 -0.10208,2.05234 l 0.37622,1.23343 0.267276,-0.34692 c 0.89437,-1.16088 1.847938,-2.67795 1.76629,-2.81006 -0.05261,-0.0851 -0.251088,-0.15477 -0.441069,-0.15477 -0.189981,0 -0.34542,-0.0637 -0.34542,-0.14151 0,-0.0845 0.545234,-0.1415 1.352684,-0.1415 0.865754,0 1.321201,0.0509 1.265225,0.1415 -0.0481,0.0778 -0.198133,0.14151 -0.333404,0.14151 -0.135271,0 -0.473734,0.2388 -0.752141,0.53066 -0.431284,0.45213 -2.229363,2.82572 -2.581132,3.40728 -0.23646,0.39093 -0.918909,3.00787 -0.838821,3.21658 0.04604,0.11998 0.26671,0.25475 0.490371,0.29948 0.8992,0.17984 0.313753,0.32898 -1.291445,0.32898 -0.933957,0 -1.698104,-0.0557 -1.698104,-0.12382 z m 23.773447,0 c 0,-0.0681 0.188294,-0.16147 0.418432,-0.2075 0.567681,-0.11354 0.673,-0.35782 1.703202,-3.9504 0.925158,-3.22626 0.946104,-3.50125 0.266686,-3.50125 -0.14613,0 -0.265691,-0.0637 -0.265691,-0.14151 0,-0.0863 0.644651,-0.1415 1.650934,-0.1415 1.647069,0 1.852256,0.0719 0.995491,0.34884 -0.400489,0.12945 -0.496046,0.26954 -0.823779,1.20775 -0.203904,0.58372 -0.416346,1.27021 -0.472093,1.52554 l -0.10136,0.46422 1.811154,-0.0397 1.811155,-0.0397 0.327162,-1.13207 c 0.422395,-1.4616 0.387659,-1.96522 -0.139731,-2.0259 -0.214032,-0.0246 -0.389149,-0.10422 -0.389149,-0.17689 0,-0.0745 0.744098,-0.1321 1.706455,-0.1321 1.604818,0 2.085178,0.14025 1.132756,0.33073 -0.267132,0.0534 -0.495939,0.22847 -0.625071,0.47818 -0.327717,0.63375 -1.964233,6.40065 -1.879223,6.62218 0.04262,0.11106 0.239414,0.24258 0.437321,0.29225 0.801669,0.2012 0.268715,0.34265 -1.291103,0.34265 -1.642233,0 -1.850641,-0.0761 -0.992196,-0.36214 0.410956,-0.13695 0.487873,-0.2651 0.891807,-1.48584 0.243133,-0.73478 0.487415,-1.54487 0.542849,-1.80019 l 0.10079,-0.46422 -1.812349,0.0397 -1.812347,0.0397 -0.459322,1.59254 c -0.252625,0.87591 -0.424258,1.68392 -0.381405,1.79559 0.04285,0.11168 0.264187,0.24396 0.491854,0.29396 0.227666,0.05 0.377786,0.14942 0.333598,0.22091 -0.102536,0.16591 -3.176827,0.17188 -3.176827,0.006 z m 12.311249,-0.006 c 0,-0.0717 0.205531,-0.17541 0.456737,-0.23059 0.325271,-0.0714 0.97323,-0.60744 2.251131,-1.86218 l 1.794394,-1.76186 -0.354522,-1.29377 c -0.518658,-1.89276 -0.728649,-2.35167 -1.121186,-2.45019 -0.759906,-0.19073 -0.249073,-0.33714 1.176252,-0.33714 0.905833,0 1.460134,0.0513 1.379709,0.12777 -0.07394,0.0703 -0.261791,0.15184 -0.417451,0.18125 -0.360859,0.0682 -0.362003,0.8099 -0.0031,2.01485 l 0.249612,0.83803 1.114946,-1.13761 c 1.134545,-1.15761 1.413405,-1.74128 0.831925,-1.74128 -0.15566,0 -0.283017,-0.0637 -0.283017,-0.14151 0,-0.0849 0.566034,-0.1415 1.415086,-0.1415 0.778297,0 1.415086,0.0301 1.415086,0.0668 0,0.0367 -0.306199,0.19854 -0.680443,0.35953 -0.468851,0.2017 -1.138645,0.75249 -2.153945,1.77126 l -1.473504,1.47853 0.346667,1.38125 c 0.463344,1.84614 0.791558,2.47417 1.378693,2.63811 0.865562,0.24168 0.459672,0.37049 -1.167446,0.37049 -0.895042,0 -1.627349,-0.0497 -1.627349,-0.11049 0,-0.0608 0.191036,-0.18259 0.424525,-0.27072 0.268028,-0.10117 0.420558,-0.25607 0.413762,-0.42018 -0.01453,-0.35075 -0.627549,-2.52859 -0.705569,-2.50662 -0.03408,0.01 -0.628662,0.59656 -1.321292,1.30438 -1.071016,1.09448 -1.232417,1.31935 -1.079365,1.50377 0.09898,0.11926 0.267685,0.21684 0.374899,0.21684 0.107215,0 0.194936,0.0637 0.194936,0.14151 0,0.0849 -0.566034,0.14151 -1.415086,0.14151 -0.778297,0 -1.415086,-0.0586 -1.415086,-0.13027 z m 26.320605,0.006 c 0,-0.0681 0.18829,-0.16147 0.41843,-0.2075 0.56768,-0.11354 0.673,-0.35782 1.7032,-3.9504 0.92516,-3.22626 0.9461,-3.50125 0.26669,-3.50125 -0.14613,0 -0.26569,-0.0637 -0.26569,-0.14151 0,-0.0863 0.64465,-0.1415 1.65093,-0.1415 1.64707,0 1.85226,0.0719 0.99549,0.34884 -0.40049,0.12945 -0.49605,0.26954 -0.82378,1.20775 -0.2039,0.58372 -0.41634,1.27021 -0.47209,1.52554 l -0.10136,0.46422 1.81115,-0.0397 1.81116,-0.0397 0.32716,-1.13207 c 0.42239,-1.4616 0.38766,-1.96522 -0.13973,-2.0259 -0.21403,-0.0246 -0.38915,-0.10422 -0.38915,-0.17689 0,-0.0745 0.7441,-0.1321 1.70646,-0.1321 1.60481,0 2.08517,0.14025 1.13275,0.33073 -0.26713,0.0534 -0.49594,0.22847 -0.62507,0.47818 -0.32772,0.63375 -1.96423,6.40065 -1.87922,6.62218 0.0426,0.11106 0.23941,0.24258 0.43732,0.29225 0.80167,0.2012 0.26871,0.34265 -1.29111,0.34265 -1.64223,0 -1.85064,-0.0761 -0.99219,-0.36214 0.41095,-0.13695 0.48787,-0.2651 0.89181,-1.48584 0.24313,-0.73478 0.48741,-1.54487 0.54285,-1.80019 l 0.10078,-0.46422 -1.81234,0.0397 -1.81235,0.0397 -0.45932,1.59254 c -0.25263,0.87591 -0.42426,1.68392 -0.38141,1.79559 0.0429,0.11168 0.26419,0.24396 0.49186,0.29396 0.22766,0.05 0.37778,0.14942 0.33359,0.22091 -0.10253,0.16591 -3.17682,0.17188 -3.17682,0.006 z m 14.29237,0 c 0,-0.0681 0.191,-0.16202 0.42444,-0.20871 0.55479,-0.11095 0.85782,-0.62521 1.34949,-2.29015 l 0.39276,-1.33 -0.32371,-1.10147 c -0.60296,-2.05166 -0.84316,-2.57959 -1.2163,-2.67325 -0.76085,-0.19096 -0.26285,-0.33858 1.14217,-0.33858 0.82575,0 1.48584,0.0587 1.48584,0.1321 0,0.0727 -0.17511,0.15226 -0.38914,0.17689 -0.54276,0.0625 -0.56608,0.53115 -0.10208,2.05234 l 0.37622,1.23343 0.26727,-0.34692 c 0.89437,-1.16088 1.84794,-2.67795 1.76629,-2.81006 -0.0526,-0.0851 -0.25109,-0.15477 -0.44107,-0.15477 -0.18998,0 -0.34542,-0.0637 -0.34542,-0.14151 0,-0.0845 0.54524,-0.1415 1.35269,-0.1415 0.86575,0 1.3212,0.0509 1.26522,0.1415 -0.0481,0.0778 -0.19813,0.14151 -0.3334,0.14151 -0.13527,0 -0.47374,0.2388 -0.75214,0.53066 -0.43129,0.45213 -2.22937,2.82572 -2.58114,3.40728 -0.23645,0.39093 -0.9189,3.00787 -0.83882,3.21658 0.046,0.11998 0.26671,0.25475 0.49038,0.29948 0.89919,0.17984 0.31375,0.32898 -1.29145,0.32898 -0.93396,0 -1.6981,-0.0557 -1.6981,-0.12382 z m 21.50931,0 c 0,-0.0681 0.18829,-0.16147 0.41842,-0.2075 0.56769,-0.11354 0.673,-0.35782 1.70321,-3.9504 0.92516,-3.22626 0.9461,-3.50125 0.26669,-3.50125 -0.14614,0 -0.2657,-0.0637 -0.2657,-0.14151 0,-0.0863 0.64466,-0.14151 1.65094,-0.14151 1.64706,0 1.85225,0.0719 0.99549,0.34884 -0.40049,0.12946 -0.49605,0.26955 -0.82378,1.20776 -0.2039,0.58372 -0.41635,1.27021 -0.47209,1.52553 l -0.10136,0.46423 1.81115,-0.0397 1.81116,-0.0397 0.32715,-1.13206 c 0.42241,-1.4616 0.38767,-1.96522 -0.13972,-2.0259 -0.21403,-0.0246 -0.38915,-0.10423 -0.38915,-0.17689 0,-0.0745 0.74409,-0.13211 1.70645,-0.13211 1.60482,0 2.08519,0.14026 1.13276,0.33074 -0.26714,0.0534 -0.49594,0.22847 -0.62507,0.47818 -0.32772,0.63375 -1.96424,6.40065 -1.87922,6.62218 0.0426,0.11106 0.23941,0.24257 0.43732,0.29225 0.80166,0.2012 0.26871,0.34264 -1.29111,0.34264 -1.64222,0 -1.85064,-0.0761 -0.99219,-0.36214 0.41096,-0.13694 0.48787,-0.26509 0.8918,-1.48584 0.24314,-0.73478 0.48741,-1.54486 0.54286,-1.80018 l 0.10078,-0.46422 -1.81234,0.0397 -1.81236,0.0397 -0.45931,1.59254 c -0.25263,0.8759 -0.42426,1.68392 -0.38141,1.79559 0.0429,0.11167 0.26419,0.24396 0.49186,0.29396 0.22766,0.05 0.37778,0.14941 0.33359,0.22091 -0.10254,0.16591 -3.17682,0.17188 -3.17682,0.006 z m 12.31124,-0.006 c 0,-0.0717 0.20553,-0.17541 0.45674,-0.23059 0.32527,-0.0714 0.97324,-0.60744 2.25113,-1.86218 l 1.7944,-1.76186 -0.35452,-1.29377 c -0.51866,-1.89276 -0.72866,-2.35167 -1.12119,-2.45019 -0.75991,-0.19072 -0.24908,-0.33714 1.17625,-0.33714 0.90584,0 1.46013,0.0513 1.37971,0.12777 -0.0739,0.0703 -0.26179,0.15184 -0.41745,0.18126 -0.36086,0.0682 -0.36201,0.80989 -0.003,2.01484 l 0.2496,0.83803 1.11495,-1.13761 c 1.13456,-1.15761 1.41342,-1.74128 0.83194,-1.74128 -0.15566,0 -0.28302,-0.0637 -0.28302,-0.14151 0,-0.0849 0.56604,-0.1415 1.41509,-0.1415 0.7783,0 1.41509,0.0301 1.41509,0.0668 0,0.0367 -0.3062,0.19854 -0.68045,0.35953 -0.46884,0.2017 -1.13865,0.75249 -2.15394,1.77126 l -1.4735,1.47853 0.34666,1.38125 c 0.46335,1.84614 0.79156,2.47417 1.37869,2.63811 0.86557,0.24168 0.45968,0.37049 -1.16744,0.37049 -0.89504,0 -1.62735,-0.0497 -1.62735,-0.11049 0,-0.0608 0.19104,-0.18259 0.42453,-0.27072 0.26803,-0.10117 0.42056,-0.25607 0.41375,-0.42018 -0.0145,-0.35075 -0.62755,-2.52859 -0.70556,-2.50662 -0.0341,0.01 -0.62867,0.59656 -1.32129,1.30438 -1.07103,1.09448 -1.23242,1.31935 -1.07937,1.50377 0.099,0.11926 0.26769,0.21684 0.37489,0.21684 0.10723,0 0.19495,0.0637 0.19495,0.14151 0,0.0849 -0.56604,0.14151 -1.41509,0.14151 -0.7783,0 -1.41509,-0.0586 -1.41509,-0.13027 z m 12.45276,0.006 c 0,-0.0681 0.191,-0.16202 0.42444,-0.20871 0.5548,-0.11095 0.85783,-0.62521 1.3495,-2.29015 l 0.39276,-1.33 -0.32372,-1.10147 c -0.60295,-2.05166 -0.84316,-2.57959 -1.21629,-2.67325 -0.76085,-0.19096 -0.26286,-0.33858 1.14217,-0.33858 0.82574,0 1.48584,0.0587 1.48584,0.1321 0,0.0727 -0.17512,0.15226 -0.38915,0.17689 -0.54275,0.0625 -0.56608,0.53115 -0.10208,2.05234 l 0.37623,1.23343 0.26726,-0.34692 c 0.89438,-1.16088 1.84795,-2.67795 1.7663,-2.81006 -0.0526,-0.0851 -0.25109,-0.15477 -0.44107,-0.15477 -0.18999,0 -0.34542,-0.0637 -0.34542,-0.14151 0,-0.0845 0.54523,-0.1415 1.35268,-0.1415 0.86576,0 1.32121,0.0509 1.26523,0.1415 -0.0481,0.0778 -0.19813,0.14151 -0.33341,0.14151 -0.13527,0 -0.47373,0.2388 -0.75213,0.53066 -0.43129,0.45213 -2.22937,2.82572 -2.58113,3.40728 -0.23646,0.39093 -0.91892,3.00787 -0.83882,3.21658 0.046,0.11998 0.2667,0.25475 0.49037,0.29948 0.8992,0.17984 0.31375,0.32898 -1.29145,0.32898 -0.93396,0 -1.69811,-0.0557 -1.69811,-0.12382 z m -67.53003,-2.17569 -0.0403,-1.45046 -1.45046,-0.0403 c -1.33384,-0.0371 -1.45047,-0.0627 -1.45047,-0.31839 0,-0.25877 0.10316,-0.27807 1.48584,-0.27807 h 1.48584 v -1.49622 c 0,-1.34869 0.0244,-1.49154 0.24764,-1.4488 0.21339,0.0408 0.25322,0.24781 0.28797,1.49622 l 0.0403,1.4488 h 1.41014 c 1.31579,0 1.41013,0.0189 1.41013,0.28302 0,0.26415 -0.0943,0.28301 -1.41508,0.28301 h -1.41509 v 1.48584 c 0,1.38269 -0.0193,1.48584 -0.27807,1.48584 -0.25571,0 -0.28131,-0.11662 -0.31839,-1.45046 z m 33.70947,-0.67217 c 0,-0.27463 0.0943,-0.28301 3.18395,-0.28301 3.0896,0 3.18394,0.008 3.18394,0.28301 0,0.27464 -0.0943,0.28302 -3.18394,0.28302 -3.08961,0 -3.18395,-0.008 -3.18395,-0.28302 z m -75.282577,-0.1415 c 0,-0.27482 0.09434,-0.28302 3.254698,-0.28302 3.160359,0 3.254698,0.008 3.254698,0.28302 0,0.27481 -0.09434,0.28301 -3.254698,0.28301 -3.160358,0 -3.254698,-0.008 -3.254698,-0.28301 z m 0,-1.98112 c 0,-0.27482 0.09434,-0.28302 3.254698,-0.28302 3.160359,0 3.254698,0.008 3.254698,0.28302 0,0.27481 -0.09434,0.28301 -3.254698,0.28301 -3.160358,0 -3.254698,-0.008 -3.254698,-0.28301 z m 11.17918,-7.43204 c -6.489552,-0.68152 -12.510801,-2.64038 -18.325365,-5.96169 -3.779267,-2.15874 -7.867252,-5.4265 -10.612492,-8.48316 -0.622278,-0.69288 -1.168026,-1.29161 -1.212772,-1.33052 -0.317335,-0.27598 -2.370956,-3.02549 -3.170802,-4.24526 -0.535875,-0.81721 -1.09424,-1.66374 -1.24081,-1.88117 -0.306866,-0.45523 -2.152178,-4.08599 -2.606761,-5.12896 -1.995301,-4.57791 -3.14444,-9.49995 -3.442023,-14.74304 -0.280893,-4.94903 0.319286,-10.554551 1.55719,-14.543787 0.53734,-1.731611 1.450439,-4.374112 1.638064,-4.740538 0.09963,-0.194575 0.460168,-0.958721 0.801194,-1.698104 1.123428,-2.435715 3.469246,-6.421613 4.550297,-7.73164 0.201494,-0.24417 0.366352,-0.508439 0.366352,-0.587265 0,-0.07882 -0.684548,-0.713001 -1.521218,-1.409281 -0.83667,-0.696281 -2.228875,-1.864787 -3.093791,-2.596679 -0.864915,-0.731892 -2.498268,-2.11078 -3.629674,-3.064195 l -2.0571,-1.73348 h -7.8679 -7.867902 v -0.778297 -0.778297 h 10.896163 10.896163 v 0.778297 0.778297 h -1.698103 c -0.933957,0 -1.698103,0.05142 -1.698103,0.114264 0,0.06284 1.948222,1.7578 4.329382,3.766568 l 4.329382,3.652306 1.805247,-1.892609 c 5.224563,-5.477408 10.972912,-9.28927 17.837711,-11.828602 2.022691,-0.748206 5.48284,-1.685409 7.411515,-2.007455 0.943684,-0.157574 2.384418,-0.397533 3.201631,-0.533243 1.164092,-0.193312 2.343835,-0.246825 5.448081,-0.247122 3.77562,-4.25e-4 4.098875,0.02119 6.863168,0.45751 3.074082,0.48522 3.441141,0.564731 6.226379,1.348734 2.503808,0.704785 5.323327,1.76886 7.272942,2.74478 l 0.692792,0.346792 1.14682,-0.567732 c 1.53008,-0.757467 2.90663,-1.3801 3.3402,-1.510825 0.19458,-0.05866 0.60849,-0.224613 0.91981,-0.368772 1.12816,-0.522406 4.4166,-1.479093 6.98138,-2.031054 3.43396,-0.739017 4.55073,-0.836632 9.64588,-0.84312 5.84981,-0.0074 7.10727,0.137513 12.09899,1.394783 1.57436,0.396538 4.19515,1.198699 4.3864,1.342578 0.078,0.0587 0.55579,0.255018 1.06168,0.436264 1.14533,0.410337 4.73571,2.119179 5.87261,2.795071 4.7948,2.850536 8.93591,6.307836 12.32265,10.28787 0.66066,0.776393 0.74138,0.91702 0.38202,0.665577 -0.25059,-0.175342 -0.49315,-0.379516 -0.53901,-0.453722 -0.16263,-0.263152 -0.3071,-0.127547 -0.48042,0.45094 -0.2025,0.675848 -0.0139,0.798213 -1.64829,-1.069259 -1.75604,-2.006415 -5.1551,-4.954731 -7.8236,-6.786101 -5.14531,-3.531186 -12.12,-6.318544 -17.92081,-7.161856 -1.08962,-0.158406 -2.45871,-0.367054 -3.04243,-0.46366 -1.71127,-0.283217 -7.46274,-0.230066 -9.7641,0.09023 -5.77966,0.804401 -10.70108,2.227426 -14.68464,4.246047 -0.65738,0.333121 -0.88756,0.370117 -2.302745,0.370117 -1.489453,0 -1.625864,-0.0251 -2.587235,-0.47608 -2.348257,-1.101565 -5.943015,-2.27707 -8.727101,-2.853804 -2.849068,-0.590195 -4.152197,-0.763136 -7.033437,-0.933419 -7.723247,-0.456448 -15.427874,1.050071 -22.166408,4.334294 -5.188422,2.52873 -10.236995,6.280443 -13.661877,10.152461 l -0.71923,0.813129 0.288553,0.732064 c 0.158704,0.402636 0.413989,1.007415 0.5673,1.343954 l 0.278748,0.611889 1.247575,-1.449539 c 6.398937,-7.434832 14.93623,-12.344688 24.534539,-14.109984 3.044753,-0.559982 4.711588,-0.712143 7.799564,-0.712 3.140079,1.41e-4 4.99581,0.165802 7.944867,0.709228 3.881257,0.715204 7.1581,1.796585 10.95045,3.613726 2.237247,1.071999 2.198097,1.001608 0.93527,1.681687 l -0.472287,0.254342 -1.602967,-0.773721 c -5.401833,-2.607363 -11.36819,-3.940294 -17.664194,-3.94632 -8.193791,-0.0078 -15.962798,2.297224 -22.641378,6.717699 -7.756817,5.134147 -13.233526,12.286831 -16.149973,21.092164 -2.402345,7.253159 -2.517959,15.62227 -0.318404,23.04857 4.492093,15.16655 17.607008,26.29113 33.590919,28.49313 2.567585,0.35372 8.294396,0.35255 10.966918,-0.002 4.168049,-0.55332 8.379545,-1.81734 12.410308,-3.72477 l 1.372636,-0.64956 0.774696,0.4056 c 0.426083,0.22309 0.749093,0.44704 0.717803,0.49766 -0.0735,0.11888 -2.953567,1.53069 -4.237772,2.07735 -2.507341,1.0673 -6.531841,2.23386 -9.127305,2.64567 -8.66982,1.37559 -16.357118,0.49134 -24.197973,-2.78342 -1.484054,-0.61982 -4.845457,-2.34115 -5.731098,-2.93481 -2.302442,-1.54338 -2.895231,-1.95323 -3.376185,-2.33428 -6.293029,-4.98585 -10.560292,-10.58659 -13.429374,-17.62589 -2.165391,-5.3128 -3.243244,-12.01443 -2.814569,-17.4998 0.396668,-5.075795 1.097252,-8.236107 2.786713,-12.570781 1.095604,-2.811005 2.237192,-4.970405 4.135451,-7.822522 0.584282,-0.877878 1.037674,-1.620233 1.00754,-1.649679 -0.03014,-0.02945 -0.620405,-0.187572 -1.31171,-0.351392 -1.021012,-0.241952 -1.297246,-0.264386 -1.471782,-0.119535 -0.365226,0.303111 -2.007171,2.889465 -3.096725,4.877894 -0.570758,1.041628 -1.037742,1.922792 -1.037742,1.958141 0,0.03535 -0.244446,0.621548 -0.543213,1.302665 -1.476392,3.365818 -2.33292,6.314657 -3.031399,10.436452 -0.404689,2.388117 -0.442364,9.721847 -0.06361,12.382007 0.138518,0.97287 0.313908,1.95989 0.389757,2.19338 0.07585,0.23349 0.290395,1.09316 0.476772,1.91037 0.356009,1.561 0.974609,3.69458 1.210341,4.1745 0.07646,0.15566 0.275247,0.66509 0.441755,1.13207 0.451633,1.26663 2.253366,4.90853 3.185345,6.43864 2.854462,4.68641 6.735657,8.92667 11.519078,12.58476 2.036633,1.5575 6.16504,3.91154 9.05455,5.16295 2.602975,1.12732 6.700496,2.34111 9.348489,2.76927 0.969065,0.15669 2.080332,0.349 2.469481,0.42736 1.321509,0.26608 5.210521,0.45238 7.428528,0.35585 2.400591,-0.10447 3.274912,-0.19637 5.976941,-0.6282 3.558926,-0.56877 7.115238,-1.62668 10.717245,-3.18809 1.307558,-0.56681 1.598579,-0.75227 1.480435,-0.94343 -0.04359,-0.0705 0.735399,-0.12547 1.778766,-0.12547 1.04337,0 1.82236,0.055 1.77877,0.12547 -0.11887,0.19234 0.1768,0.37907 1.48043,0.93494 1.90982,0.81435 4.19206,1.63519 5.79735,2.08511 2.38875,0.6695 3.5093,0.89039 7.85373,1.54825 1.29498,0.19609 7.88671,0.20063 9.33957,0.006 5.10441,-0.68229 9.57294,-1.83444 13.11472,-3.38144 9.00724,-3.93425 15.91736,-9.95668 20.97342,-18.27915 1.07737,-1.77341 2.82264,-5.52001 3.33851,-7.16682 0.0975,-0.31132 0.26162,-0.75707 0.36465,-0.99056 0.67649,-1.53285 1.78502,-6.79208 2.04315,-9.69334 0.16958,-1.90595 0.16958,-5.59401 0,-7.49996 -0.26648,-2.994955 -1.30211,-7.863618 -2.12212,-9.976356 -1.14743,-2.956302 -1.53822,-3.87799 -2.25866,-5.327212 -0.85707,-1.723993 -1.50594,-2.843217 -2.51598,-4.339695 -0.33163,-0.491355 -0.60297,-0.915201 -0.60297,-0.941881 0,-0.02668 0.29651,-0.149541 0.65892,-0.273027 0.76161,-0.259507 0.86173,-0.210335 1.36706,0.671409 0.18527,0.323302 0.60734,1.026587 0.93791,1.562856 0.72672,1.178903 2.27732,4.247842 2.68901,5.322098 0.16405,0.428063 0.35919,0.905655 0.43365,1.061314 0.67947,1.420354 1.74193,5.212202 2.20059,7.853727 0.18243,1.050701 0.41426,2.356118 0.51517,2.900926 0.25308,1.366291 0.25308,9.105351 0,10.471641 -0.10091,0.54481 -0.33274,1.85022 -0.51517,2.90092 -0.4699,2.70626 -1.55607,6.49258 -2.34239,8.16541 -0.15643,0.33277 -0.28441,0.64735 -0.28441,0.69906 0,0.0517 -0.16462,0.4504 -0.36581,0.88597 -3.20812,6.94513 -7.56014,12.46132 -13.64354,17.29321 -3.5196,2.79552 -9.49444,5.95756 -13.72634,7.26433 -0.42806,0.13218 -0.90565,0.29771 -1.06131,0.36784 -0.71211,0.32083 -5.1609,1.30349 -7.07543,1.56284 -4.15033,0.56222 -9.93903,0.52269 -14.22162,-0.0971 -3.82417,-0.55346 -9.2392,-2.23441 -12.89846,-4.00397 l -1.224,-0.59191 -1.2524,0.58506 c -1.726455,0.80651 -4.104514,1.76221 -5.249116,2.10952 -0.525848,0.15956 -1.083443,0.35152 -1.239102,0.42659 -0.650565,0.31374 -5.107995,1.30548 -7.075431,1.57422 -2.812966,0.38423 -9.034487,0.48668 -11.815969,0.19458 z m 27.492197,-9.66733 c -0.3285,-0.20732 -0.59601,-0.40879 -0.59448,-0.4477 0.002,-0.0389 0.55672,-0.42099 1.23373,-0.84905 7.46339,-4.71898 13.43453,-12.26239 16.29106,-20.58069 3.562,-10.37262 2.57098,-22.030996 -2.68075,-31.536454 -1.95538,-3.53917 -4.01618,-6.268732 -6.91834,-9.163442 -2.19221,-2.186584 -3.5645,-3.31491 -6.13255,-5.042336 -0.99232,-0.6675 -1.80423,-1.234477 -1.80423,-1.259949 0,-0.09675 1.23634,-0.765783 1.41513,-0.765783 0.39554,0 3.52229,2.190939 5.23272,3.666599 4.93755,4.259852 8.468,8.968518 11.14995,14.871027 1.31803,2.900769 2.63277,7.514844 3.14507,11.03767 0.25422,1.748128 0.34261,7.080018 0.15258,9.204218 -1.01634,11.36124 -7.08392,22.14772 -16.35491,29.07454 -1.85763,1.38793 -3.10246,2.19721 -3.35403,2.1805 -0.10103,-0.007 -0.45246,-0.18182 -0.78095,-0.38915 z m -3.821226,-30.38242 c -0.488276,-0.42713 -0.888881,-0.95623 -1.195339,-1.57873 -0.413016,-0.83895 -0.460935,-1.06409 -0.460935,-2.1656 0,-1.10054 0.0481,-1.327 0.459176,-2.16202 0.551329,-1.11991 2.148626,-2.68069 2.148626,-2.09951 0,0.0689 -0.156237,0.2276 -0.347192,0.35272 -0.59451,0.38954 -1.058947,1.36877 -1.24073,2.61598 -0.324291,2.22496 0.227345,4.53765 1.24073,5.20164 0.334403,0.21911 0.463639,0.47796 0.238629,0.47796 -0.05971,0 -0.439043,-0.2891 -0.842965,-0.64244 z m 19.029306,0.041 c 0.3243,-0.33078 0.69424,-0.88797 0.82209,-1.2382 0.31682,-0.86793 0.42624,-3.03045 0.20917,-4.13382 -0.21499,-1.09278 -0.45669,-1.5865 -1.111,-2.26945 -0.86592,-0.90381 -0.194,-0.58301 0.74097,0.35378 0.7108,0.71217 0.94251,1.06202 1.18972,1.79633 0.71015,2.10939 0.0514,4.4706 -1.58243,5.67214 -0.82304,0.60527 -0.95324,0.51761 -0.26852,-0.18078 z m 26.92196,-3.92687 c 0,-3.805 0.0281,-4.38676 0.21226,-4.38676 0.18412,0 0.21227,0.58176 0.21227,4.38676 0,3.80501 -0.0281,4.38677 -0.21227,4.38677 -0.18411,0 -0.21226,-0.58176 -0.21226,-4.38677 z m -79.069953,-0.1416 c 0.02391,-2.8053 0.08841,-4.38686 0.178902,-4.38686 0.09049,0 0.15499,1.58156 0.178903,4.38686 0.03288,3.85775 0.01131,4.38686 -0.178903,4.38686 -0.190207,0 -0.211784,-0.52911 -0.178902,-4.38686 z m 69.859163,3.92696 c -0.36164,-0.27685 -0.80048,-0.82464 -1.10255,-1.37627 -0.45065,-0.823 -0.5076,-1.04939 -0.55888,-2.22184 -0.0538,-1.22992 -0.0311,-1.36116 0.39213,-2.26758 0.47347,-1.01405 1.09848,-1.77282 1.73491,-2.10624 0.58916,-0.30866 0.57822,-0.24818 -0.0729,0.4029 -0.86945,0.86945 -1.16235,1.85621 -1.14411,3.85443 0.0169,1.84717 0.3467,2.90239 1.15154,3.68403 0.63727,0.61892 0.39277,0.63759 -0.40018,0.0306 z m 18.62343,-0.15647 c 0.65996,-0.68877 0.89461,-1.37873 1.01762,-2.9921 0.15059,-1.97513 -0.38366,-3.85063 -1.30286,-4.57366 -0.47346,-0.37243 -0.44892,-0.50631 0.0459,-0.25042 0.51657,0.26713 1.35025,1.19282 1.71087,1.89969 0.67548,1.32404 0.63283,3.39745 -0.0975,4.73928 -0.37656,0.69184 -1.48013,1.79358 -1.79658,1.79358 -0.0925,0 0.0977,-0.27737 0.42251,-0.61637 z m -97.503743,0.16811 c -2.22082,-1.61226 -2.583039,-5.17781 -0.738846,-7.27293 0.493701,-0.56087 1.175348,-1.05234 1.459554,-1.05234 0.05279,0 -0.168453,0.2388 -0.491651,0.53066 -0.859236,0.77593 -1.194893,1.811 -1.204583,3.7146 -0.0097,1.90156 0.273223,2.89276 1.073412,3.76086 0.622104,0.6749 0.580225,0.81145 -0.09789,0.31915 z m 18.181196,-0.0648 c 0.902869,-0.75971 1.378763,-2.45967 1.239534,-4.4278 -0.118596,-1.67647 -0.341018,-2.33711 -1.053713,-3.1298 -0.905563,-1.007207 -0.461414,-0.86879 0.58265,0.18158 0.703077,0.70732 0.932805,1.05445 1.147208,1.73348 0.36484,1.15547 0.338726,2.58934 -0.06648,3.65047 -0.336456,0.88109 -1.625673,2.36364 -2.055407,2.36364 -0.167144,0 -0.107364,-0.10771 0.206209,-0.37157 z m 33.439197,-0.0632 c 0.35184,-0.29002 0.52752,-0.55239 0.52752,-0.78784 0,-0.28206 -0.0539,-0.3359 -0.2681,-0.26791 -0.28793,0.0914 -0.72246,-0.24187 -0.72246,-0.55408 0,-0.28251 0.37269,-0.5296 0.72094,-0.47799 0.17159,0.0254 0.43973,0.218 0.59587,0.42792 0.26235,0.35272 0.26841,0.42231 0.0799,0.91755 -0.11601,0.30483 -0.40911,0.67414 -0.67976,0.85653 -0.69568,0.46882 -0.86749,0.39156 -0.25393,-0.11418 z m -23.67045,-1.24559 c 0,-0.0681 0.19236,-0.16229 0.427465,-0.20931 l 0.427465,-0.0855 -0.03832,-2.86665 c -0.03662,-2.73996 -0.05083,-2.86891 -0.321334,-2.91762 -0.714784,-0.12868 -0.48267,-0.3065 0.400103,-0.3065 h 0.951988 l 1.205748,2.511 1.205747,2.51099 0.599873,-1.27279 c 0.329929,-0.70004 0.852219,-1.8294 1.160641,-2.50969 l 0.560771,-1.2369 0.99056,0.0102 c 0.93552,0.01 0.967407,0.0204 0.57386,0.19393 -0.229185,0.10106 -0.463505,0.30284 -0.520711,0.44841 -0.126818,0.3227 -0.154656,4.6637 -0.03283,5.11855 0.05711,0.21322 0.227409,0.35365 0.493349,0.40684 0.844697,0.16894 0.354045,0.32887 -1.008952,0.32887 -0.849052,0 -1.415086,-0.0566 -1.415086,-0.14151 0,-0.0778 0.160773,-0.14151 0.357274,-0.14151 0.253303,0 0.397435,-0.10563 0.49528,-0.36298 0.160584,-0.42237 0.189446,-4.44902 0.03187,-4.44684 -0.05837,8.5e-4 -0.277139,0.36697 -0.486148,0.81368 -1.542027,3.29575 -1.980397,4.15273 -2.103296,4.11176 -0.07719,-0.0257 -0.643619,-1.12085 -1.25874,-2.43359 -0.61512,-1.31275 -1.186938,-2.45536 -1.270707,-2.53913 -0.108735,-0.10873 -0.152305,0.41748 -0.152305,1.83943 0,2.56126 0.0602,2.86698 0.585197,2.97198 0.778709,0.15574 0.396312,0.32871 -0.726706,0.32871 -0.622638,0 -1.132069,-0.0557 -1.132069,-0.12382 z m 9.056551,-0.0177 c 0,-0.0778 0.119561,-0.14151 0.265691,-0.14151 0.541415,0 0.59111,-0.28221 0.5511,-3.12961 -0.03671,-2.61255 -0.05159,-2.74169 -0.321511,-2.79027 -0.155659,-0.028 -0.343512,-0.10845 -0.41745,-0.17872 -0.08042,-0.0764 0.431299,-0.12314 1.273578,-0.11623 1.342896,0.011 1.386742,0.0208 0.948107,0.21267 l -0.459903,0.20112 v 2.73071 c 0,2.82568 0.04736,3.07033 0.594336,3.07033 0.140094,0 0.254716,0.0637 0.254716,0.14151 0,0.0844 -0.542449,0.14151 -1.344332,0.14151 -0.801882,0 -1.344332,-0.0571 -1.344332,-0.14151 z m 6.513047,0.0354 c 0.002,-0.0584 0.257634,-0.22325 0.568057,-0.36639 0.38272,-0.17648 0.871235,-0.64619 1.517565,-1.45912 0.52424,-0.65937 0.95316,-1.25694 0.95316,-1.32793 0,-0.071 -0.40193,-0.69854 -0.89319,-1.39457 -0.70197,-0.99457 -1.02007,-1.32093 -1.48584,-1.52439 l -0.592648,-0.25889 0.818841,-0.0432 c 0.450367,-0.0238 1.150827,-0.0194 1.556597,0.01 0.5757,0.0413 0.66781,0.0775 0.41936,0.16523 -0.17512,0.0618 -0.3184,0.21129 -0.3184,0.33218 0,0.28908 1.02045,1.86884 1.20283,1.86211 0.0778,-0.003 0.4492,-0.41386 0.82527,-0.91331 0.6519,-0.86577 0.73765,-1.20163 0.30679,-1.20163 -0.10755,0 -0.23491,-0.0637 -0.28301,-0.14151 -0.0555,-0.0899 0.32871,-0.14151 1.05296,-0.14151 0.66594,0 1.14042,0.0589 1.14042,0.14151 0,0.0778 -0.11144,0.14293 -0.24764,0.14466 -0.1362,0.002 -0.38535,0.11317 -0.55365,0.24764 -0.41105,0.32841 -1.88737,2.154 -1.88737,2.33388 0,0.19486 1.51525,2.43546 1.99262,2.94648 0.21178,0.22672 0.48687,0.41221 0.61131,0.41221 0.12443,0 0.22624,0.0637 0.22624,0.14151 0,0.0844 -0.54245,0.14151 -1.34433,0.14151 -1.24548,0 -1.73217,-0.14859 -1.06132,-0.32402 0.15566,-0.0407 0.28302,-0.15964 0.28302,-0.26429 0,-0.23818 -1.33814,-2.18035 -1.47827,-2.14554 -0.18658,0.0464 -1.63492,1.94385 -1.63492,2.14194 0,0.10663 0.12736,0.22718 0.28302,0.26789 0.63211,0.1653 0.21621,0.32402 -0.84905,0.32402 -0.622642,0 -1.13043,-0.0478 -1.128422,-0.10613 z m 11.883072,-0.0354 c 0,-0.0778 0.11462,-0.14151 0.25472,-0.14151 0.46289,0 0.59433,-0.30554 0.59433,-1.38154 v -1.04192 l -1.08984,-1.62956 c -0.64445,-0.96358 -1.25169,-1.71325 -1.48584,-1.83434 -0.2178,-0.11263 -0.396,-0.23498 -0.396,-0.2719 0,-0.0369 0.60495,-0.0671 1.34433,-0.0671 0.80189,0 1.34434,0.0571 1.34434,0.14151 0,0.0778 -0.12736,0.14151 -0.28302,0.14151 -0.18041,0 -0.28302,0.0943 -0.28302,0.2602 0,0.3176 1.42954,2.57049 1.62735,2.56463 0.21317,-0.006 1.48584,-2.13621 1.48584,-2.48664 0,-0.18929 -0.1209,-0.34728 -0.31839,-0.41605 -0.26444,-0.0921 -0.21649,-0.12023 0.28301,-0.16614 0.33078,-0.0304 0.87205,-0.0357 1.20283,-0.0118 l 0.60141,0.0435 -0.49528,0.24858 c -0.35871,0.18004 -0.77819,0.67726 -1.52122,1.80313 l -1.02594,1.55455 v 1.10487 c 0,1.14049 0.12508,1.44449 0.59434,1.44449 0.14009,0 0.25471,0.0637 0.25471,0.14151 0,0.0844 -0.54244,0.14151 -1.34433,0.14151 -0.80188,0 -1.34433,-0.0571 -1.34433,-0.14151 z m 14.29206,-0.1592 c 1.4e-4,-0.0486 0.18272,-0.12492 0.40567,-0.16951 0.52975,-0.10595 0.58576,-0.4057 0.58311,-3.12056 -0.002,-2.3227 -0.10941,-2.76758 -0.70658,-2.93377 -0.19396,-0.054 0.31598,-0.099 1.1332,-0.10009 1.06328,-0.001 1.36854,0.0331 1.07337,0.1214 -0.58005,0.17346 -0.64423,0.33788 -0.64668,1.65657 l -0.002,1.16745 h 1.5566 1.55659 l -0.002,-1.16745 c -0.002,-1.28706 -0.056,-1.44242 -0.56787,-1.64671 -0.2641,-0.1054 -0.003,-0.13833 1.06531,-0.13445 0.78062,0.003 1.25698,0.0491 1.06245,0.10328 -0.60403,0.1681 -0.70449,0.604 -0.70466,3.05759 -8e-5,1.24527 0.0383,2.40753 0.0852,2.58278 0.0541,0.20176 0.24801,0.36378 0.52873,0.44169 0.34971,0.0971 0.14903,0.13438 -0.95032,0.17664 -0.76651,0.0295 -1.42297,0.006 -1.45881,-0.0525 -0.0359,-0.0584 0.0955,-0.10614 0.29197,-0.10614 0.52105,0 0.66717,-0.40855 0.62045,-1.73483 l -0.0411,-1.16609 h -1.48584 -1.48584 v 1.34433 1.34433 l 0.49528,0.16357 c 0.45165,0.14916 0.36749,0.16785 -0.95549,0.21226 -0.79793,0.0268 -1.45064,0.009 -1.45047,-0.0398 z m 20.80469,0.0462 -1.05868,-0.0422 0.55476,-0.31153 c 0.3051,-0.17135 1.02425,-0.86339 1.59808,-1.53787 l 1.04335,-1.22633 -0.66558,-0.96705 c -0.85301,-1.2394 -1.43775,-1.8626 -1.96982,-2.09938 -0.38645,-0.17197 -0.2849,-0.18915 1.13206,-0.19149 1.01502,-0.002 1.45086,0.0401 1.25268,0.12005 -0.16715,0.0674 -0.34917,0.19586 -0.4045,0.28538 -0.11759,0.19026 1.06733,1.99253 1.26929,1.93061 0.24744,-0.0759 1.49661,-1.80847 1.40766,-1.9524 -0.0479,-0.0775 -0.22388,-0.19615 -0.39103,-0.26359 -0.20739,-0.0837 0.0781,-0.12372 0.8989,-0.12606 1.12073,-0.003 1.17338,0.009 0.77139,0.18449 -0.35768,0.1558 -1.13415,0.95719 -2.2978,2.37157 -0.22494,0.27341 -0.19766,0.32606 1.15085,2.22098 0.53426,0.75074 1.00234,1.2529 1.2809,1.37417 0.40429,0.17599 0.32157,0.19082 -1.04685,0.18766 -0.98055,-0.002 -1.38249,-0.0451 -1.18192,-0.12605 0.16715,-0.0674 0.3416,-0.18361 0.38768,-0.25815 0.0771,-0.1248 -1.2373,-2.28995 -1.39018,-2.28995 -0.16081,0 -1.63631,1.96415 -1.63631,2.17821 0,0.13011 0.13824,0.2877 0.30721,0.3502 0.4725,0.17479 0.14914,0.2351 -1.01214,0.18877 z m -7.82096,-0.18683 0.4599,-0.1328 v -1.19521 -1.19522 l -0.9987,-1.48552 c -0.54929,-0.81703 -1.202,-1.64575 -1.45047,-1.8416 l -0.45176,-0.35609 1.41509,0.01 c 1.11935,0.008 1.33376,0.0393 1.02594,0.15173 -0.21404,0.0782 -0.38915,0.24883 -0.38915,0.37924 0,0.26112 1.49788,2.56947 1.66732,2.56947 0.13499,0 1.58737,-2.29883 1.58737,-2.51249 0,-0.0881 -0.14152,-0.25925 -0.3145,-0.38041 -0.29578,-0.20717 -0.24733,-0.22009 0.81368,-0.21703 l 1.12817,0.003 -0.49528,0.28923 c -0.32857,0.19188 -0.84059,0.81309 -1.52121,1.84564 l -1.02594,1.55641 v 1.10546 c 0,1.17214 0.0844,1.3465 0.70754,1.46106 0.19458,0.0358 -0.31485,0.068 -1.13207,0.0716 -1.14994,0.005 -1.38187,-0.0235 -1.02593,-0.12628 z m -91.715386,-0.1369 c 0.34031,-0.0987 0.462491,-0.23013 0.530657,-0.57096 0.112991,-0.56496 0.112429,-4.61992 -7.07e-4,-5.04206 -0.05352,-0.19971 -0.250867,-0.3666 -0.528726,-0.44714 -0.332109,-0.0963 -0.07057,-0.12686 1.042507,-0.12199 0.817212,0.004 1.326643,0.0342 1.132069,0.068 -0.574456,0.0999 -0.707544,0.41885 -0.707544,1.69587 v 1.17578 h 1.556595 1.556595 v -1.17578 c 0,-1.23074 -0.130402,-1.57821 -0.636789,-1.6968 -0.155659,-0.0365 0.353772,-0.0673 1.132069,-0.0686 0.778297,-10e-4 1.256398,0.0419 1.062447,0.0958 -0.604079,0.16811 -0.704504,0.60396 -0.704504,3.05759 0,2.45363 0.100425,2.88948 0.704504,3.05759 0.193951,0.054 -0.315989,0.099 -1.133201,0.10009 -1.063282,0.001 -1.36854,-0.0331 -1.073376,-0.1214 0.226856,-0.0678 0.464676,-0.20565 0.52849,-0.30624 0.06382,-0.10058 0.117002,-0.74007 0.118193,-1.42109 l 0.0022,-1.2382 h -1.556594 -1.556595 l 0.0022,1.2382 c 0.0011,0.68102 0.05438,1.32051 0.118194,1.42109 0.06381,0.10059 0.301634,0.2384 0.528489,0.30624 0.29565,0.0884 -0.0083,0.12317 -1.073375,0.12274 -1.119355,-4.3e-4 -1.376796,-0.0322 -1.043739,-0.12878 z m 10.620322,-0.14707 c 0.384348,-0.1865 0.940629,-0.70865 1.591972,-1.49429 0.550652,-0.66419 1.001186,-1.26637 1.001186,-1.33817 0,-0.19061 -1.472245,-2.25896 -1.879523,-2.64053 -0.191194,-0.17913 -0.531065,-0.38061 -0.755269,-0.44774 -0.287361,-0.086 0.05166,-0.123 1.148951,-0.12525 1.065587,-0.002 1.456162,0.0372 1.238201,0.12478 -0.175117,0.0704 -0.318395,0.21017 -0.318395,0.31061 0,0.21959 1.113921,1.95183 1.249281,1.94274 0.163183,-0.011 1.439383,-1.72065 1.439383,-1.9283 0,-0.10839 -0.143278,-0.25466 -0.318395,-0.32505 -0.230558,-0.0927 -0.0061,-0.12956 0.813675,-0.13372 l 1.132069,-0.006 -0.458382,0.22598 c -0.427633,0.21082 -2.301036,2.33173 -2.301036,2.60505 0,0.12798 1.554053,2.40745 1.961823,2.87758 0.127358,0.14684 0.422597,0.3513 0.656086,0.45437 0.385973,0.17037 0.289593,0.18707 -1.061314,0.18395 -1.029144,-0.002 -1.387978,-0.0428 -1.167446,-0.1314 0.175117,-0.0704 0.318394,-0.23547 0.318394,-0.36684 0,-0.24472 -1.252814,-2.17591 -1.411574,-2.17591 -0.145055,0 -1.630861,1.95853 -1.630861,2.14974 0,0.0972 0.159197,0.25733 0.353771,0.35577 0.310299,0.15699 0.197272,0.17837 -0.919806,0.17401 l -1.273577,-0.005 z m 11.083674,0.20074 c 0.551493,-0.0959 0.707543,-0.42751 0.707543,-1.50373 v -0.98364 l -1.096691,-1.62938 c -0.603181,-0.89617 -1.287729,-1.74654 -1.521218,-1.88972 l -0.424526,-0.26032 1.415086,0.002 c 1.24611,0.001 1.372842,0.0234 1.061315,0.18464 -0.194574,0.10069 -0.345438,0.28772 -0.335254,0.41562 0.02009,0.25232 1.481723,2.50736 1.626367,2.5092 0.182514,0.002 1.539059,-2.22186 1.539059,-2.52342 0,-0.19415 -0.121997,-0.36379 -0.318394,-0.44274 -0.227706,-0.0915 0.02421,-0.12895 0.884429,-0.1314 1.116178,-0.003 1.172243,0.0101 0.778297,0.18395 -0.549113,0.24239 -0.751003,0.47826 -1.771177,2.06929 l -0.846732,1.32054 v 1.16021 c 0,1.19483 0.07753,1.37952 0.636788,1.51699 0.15566,0.0383 -0.385611,0.0683 -1.202823,0.0667 -0.817212,-0.002 -1.326643,-0.0305 -1.132069,-0.0644 z M 25.917556,66.094009 c -0.550032,-0.37645 -0.93002,-0.85252 -1.428521,-1.789724 -0.292496,-0.549906 -0.336492,-0.826367 -0.337104,-2.118288 -5.66e-4,-1.289835 0.04483,-1.578364 0.344461,-2.18723 0.418786,-0.850992 1.178154,-1.715983 1.766829,-2.012588 l 0.435161,-0.219255 -0.515066,0.546811 c -0.664188,0.705124 -0.902923,1.194126 -1.118876,2.291792 -0.403172,2.049284 0.104153,4.434826 1.151131,5.41285 0.534324,0.499135 0.378534,0.538672 -0.298015,0.07563 z m 9.017598,-0.270931 c 0.809606,-0.878318 1.086235,-1.993321 0.994543,-4.008688 -0.0885,-1.945326 -0.255373,-2.471451 -1.054993,-3.326307 -0.691103,-0.738846 -0.658516,-0.896122 0.07374,-0.355881 2.435772,1.797056 2.644977,5.664362 0.414883,7.669408 -0.893103,0.802976 -1.160918,0.816404 -0.428172,0.02147 z m 136.979976,0.03803 c -1.32891,-1.169755 -1.91167,-3.158011 -1.45412,-4.961208 0.26989,-1.063615 1.0104,-2.214278 1.75881,-2.732926 0.7347,-0.509145 0.84543,-0.459763 0.24302,0.108383 -0.91232,0.860433 -1.13829,1.593108 -1.14062,3.698378 -0.003,2.276746 0.18482,3.004775 0.98927,3.844339 0.74011,0.772422 0.46607,0.802175 -0.39636,0.04303 z m 9.46457,-0.05676 c 0.51241,-0.534774 0.63634,-0.787183 0.84331,-1.717507 0.17273,-0.776349 0.22138,-1.441796 0.16886,-2.309399 -0.1095,-1.808644 -0.32111,-2.458363 -1.07317,-3.294831 -0.60117,-0.66864 -0.61745,-0.705776 -0.21903,-0.499746 0.54785,0.283306 1.37385,1.194883 1.74898,1.930195 0.60138,1.178805 0.59933,3.236817 -0.005,4.485686 -0.35608,0.736627 -1.54861,2.032506 -1.87036,2.032506 -0.10711,0 0.0756,-0.282107 0.40594,-0.626904 z M 16.951863,64.296431 c 0.570028,-0.165269 0.619792,-0.419613 0.617127,-3.15406 -0.0023,-2.322698 -0.109413,-2.767581 -0.706588,-2.933773 -0.193952,-0.05398 0.284148,-0.0971 1.062446,-0.09583 0.778297,0.0013 1.287728,0.03362 1.132069,0.07188 -0.566455,0.139236 -0.636789,0.317399 -0.636789,1.613032 v 1.256251 h 1.556595 1.556594 v -1.175776 c 0,-1.277023 -0.133087,-1.596015 -0.707543,-1.695869 -0.194574,-0.03382 0.314857,-0.06469 1.132069,-0.0686 1.056454,-0.0051 1.366644,0.02854 1.073376,0.116235 -0.226856,0.06784 -0.464676,0.205643 -0.52849,0.306232 -0.06381,0.100588 -0.116026,1.329108 -0.116026,2.730043 0,1.400935 0.05221,2.629455 0.116026,2.730043 0.06381,0.100589 0.301634,0.238393 0.52849,0.306232 0.292547,0.08748 -0.01952,0.120714 -1.073376,0.114304 -0.817212,-0.005 -1.310699,-0.03557 -1.096638,-0.068 0.556116,-0.08424 0.689057,-0.451542 0.642437,-1.774977 l -0.04108,-1.166096 -1.521217,-0.04017 -1.521218,-0.04016 v 1.331791 c 0,1.412161 0.06594,1.569427 0.707543,1.687388 0.194574,0.03577 -0.314857,0.06797 -1.132069,0.07155 -1.110229,0.0049 -1.37408,-0.02589 -1.043738,-0.12167 z m 10.472254,-0.143985 c 0.390136,-0.18937 0.919016,-0.697749 1.591972,-1.530257 0.554259,-0.685672 1.007745,-1.289432 1.007745,-1.341691 0,-0.05226 -0.424904,-0.673919 -0.944232,-1.381469 -0.706367,-0.962379 -1.089582,-1.35247 -1.521217,-1.548511 l -0.576986,-0.262055 1.556595,0.0059 c 1.022691,0.0038 1.452353,0.04792 1.252681,0.128484 -0.167153,0.06744 -0.341073,0.182745 -0.386487,0.256227 -0.06271,0.101468 0.813718,1.650518 1.127973,1.993645 0.08682,0.0948 0.437226,-0.25408 1.04034,-1.035825 0.612277,-0.793626 0.641332,-1.151152 0.102095,-1.25631 -0.168537,-0.03287 0.23484,-0.06833 0.896393,-0.07881 l 1.202823,-0.01905 -0.491954,0.247419 c -0.430859,0.216692 -1.947961,1.850686 -2.266199,2.440804 -0.167516,0.310634 1.820132,3.10967 2.432007,3.424787 l 0.467655,0.240843 -1.485841,-0.0073 c -0.817212,-0.004 -1.326977,-0.05151 -1.132811,-0.10554 0.194165,-0.05403 0.371948,-0.196473 0.395072,-0.316547 0.04124,-0.214126 -1.227227,-2.241161 -1.404327,-2.244151 -0.170022,-0.0029 -1.678666,1.964303 -1.678666,2.188869 0,0.123404 0.143277,0.281961 0.318394,0.352351 0.227386,0.0914 -0.02542,0.128526 -0.884429,0.129895 l -1.202823,0.0019 0.584227,-0.283582 z m 135.617813,0.197653 c 0.65593,-0.114017 0.70754,-0.338931 0.70754,-3.083908 0,-2.682481 -0.0549,-2.948576 -0.63679,-3.084836 -0.15566,-0.03645 0.35377,-0.06499 1.13207,-0.06342 0.7783,0.0016 1.27238,0.03038 1.09794,0.06402 -0.54931,0.105933 -0.74417,0.569779 -0.74417,1.771395 v 1.100581 h 1.5566 1.55659 V 59.79768 c 0,-1.295633 -0.0703,-1.473796 -0.63679,-1.613032 -0.15566,-0.03826 0.35378,-0.06957 1.13207,-0.06957 0.7783,0 1.28773,0.03131 1.13207,0.06957 -0.6194,0.152249 -0.63679,0.236428 -0.63679,3.081546 0,2.897759 0.0126,2.95259 0.70755,3.080359 0.19457,0.03577 -0.31486,0.06797 -1.13207,0.07155 -1.14994,0.005 -1.38188,-0.02351 -1.02594,-0.126283 l 0.4599,-0.132792 V 62.7432 61.327373 l -1.52122,0.04016 -1.52121,0.04017 -0.0423,1.059647 c -0.0567,1.422193 0.0196,1.664596 0.57471,1.824936 0.35335,0.102066 0.11833,0.130839 -1.02773,0.125818 -0.81722,-0.0036 -1.32665,-0.03418 -1.13207,-0.068 z m 12.59426,0 c 0.55149,-0.09586 0.70755,-0.427513 0.70755,-1.503728 v -0.983636 l -1.09669,-1.629388 c -0.60318,-0.896164 -1.28773,-1.746536 -1.52122,-1.889714 l -0.42453,-0.260327 1.41509,0.0016 c 1.24611,0.0014 1.37284,0.02342 1.06131,0.184633 -0.19457,0.100693 -0.3446,0.292736 -0.33339,0.426763 0.0246,0.294659 1.4525,2.499178 1.61872,2.499178 0.20409,0 1.539,-2.178391 1.54199,-2.516337 0.002,-0.20431 -0.11412,-0.369972 -0.31554,-0.450934 -0.2277,-0.09153 0.0242,-0.128956 0.88443,-0.131409 1.11889,-0.0032 1.17321,0.0097 0.7783,0.18525 -0.54007,0.240038 -0.80507,0.551501 -1.88282,2.212909 -0.82628,1.273774 -0.87649,1.399691 -0.87466,2.193383 0.003,1.202387 0.10088,1.458495 0.61604,1.607812 0.33211,0.09626 0.0706,0.126865 -1.04251,0.12199 -0.81721,-0.0036 -1.32664,-0.03418 -1.13207,-0.068 z M 79.330119,58.888823 c -0.08303,-0.171213 -0.603067,-1.18688 -1.155625,-2.257038 L 77.16984,54.686041 h 0.837233 0.837232 V 49.31141 43.936779 l -0.318395,-0.07798 c -0.175117,-0.04289 -3.390915,-0.06003 -7.14622,-0.03807 l -6.827827,0.03991 3.7e-5,-0.74292 3.5e-5,-0.742921 h 15.77821 15.77821 l 4.1e-5,0.742921 4e-5,0.74292 -7.606128,-0.04039 c -4.18337,-0.02221 -7.749406,-0.0051 -7.924523,0.03807 l -0.318394,0.07846 v 5.374631 5.374631 h 0.778297 c 0.428064,0 0.778298,0.02477 0.778298,0.05505 0,0.0853 -2.143495,4.248152 -2.245006,4.359992 -0.04944,0.05447 -0.157825,-0.04105 -0.240861,-0.212263 z M 73.987381,40.81075 c -0.404376,-0.355947 -0.827937,-0.931854 -1.116615,-1.518242 -0.421608,-0.856407 -0.465103,-1.064139 -0.465103,-2.221311 0,-1.079418 0.05684,-1.397741 0.368079,-2.061308 0.42605,-0.908346 1.129423,-1.75874 1.697774,-2.052646 0.638832,-0.330353 0.643271,-0.239506 0.01459,0.29862 -1.208902,1.034775 -1.587667,3.797943 -0.868921,6.338952 0.08486,0.300009 0.412284,0.82536 0.727607,1.167446 0.719195,0.780233 0.50665,0.809068 -0.357413,0.04849 z m 18.821734,0.168814 c 1.022868,-0.934247 1.495273,-2.899671 1.19956,-4.990727 -0.191358,-1.353127 -0.608204,-2.266173 -1.291903,-2.829734 -0.536308,-0.442071 -0.494116,-0.522427 0.108535,-0.206705 0.574738,0.301099 1.225677,1.052291 1.665877,1.92244 0.561912,1.11074 0.645659,2.829996 0.195971,4.023068 -0.327449,0.868751 -1.706447,2.486327 -2.119617,2.486327 -0.117983,0 -0.01787,-0.167703 0.241577,-0.404669 z m -9.364033,-0.50762 c 0.610168,-0.575463 0.629272,-1.022933 0.04072,-0.953845 -0.551352,0.06472 -0.791329,-0.42744 -0.399483,-0.819286 0.369763,-0.369763 0.507703,-0.360699 0.929481,0.06108 0.567469,0.567468 0.380794,1.38299 -0.4405,1.924391 -0.641692,0.423006 -0.701124,0.326093 -0.130219,-0.21234 z m -18.268419,-1.2165 c 0.226855,-0.06784 0.464676,-0.205643 0.528489,-0.306231 0.06382,-0.100589 0.117003,-1.332857 0.118194,-2.738374 0.0023,-2.736714 -0.04924,-2.961525 -0.705377,-3.075577 -0.194574,-0.03382 0.314857,-0.06149 1.132069,-0.06149 0.817213,0 1.326644,0.02767 1.132069,0.06149 -0.574455,0.09985 -0.707543,0.418844 -0.707543,1.695868 v 1.175777 h 1.556595 1.556595 v -1.256251 c 0,-1.295634 -0.07033,-1.473797 -0.636789,-1.613033 -0.15566,-0.03826 0.353771,-0.06957 1.132069,-0.06957 0.778297,0 1.287728,0.03131 1.132069,0.06957 -0.619393,0.152249 -0.636789,0.236428 -0.636789,3.081546 0,2.89776 0.01259,2.95259 0.707543,3.08036 0.194574,0.03577 -0.314857,0.06633 -1.132069,0.0679 -0.817212,0.0016 -1.358483,-0.02845 -1.202823,-0.06671 0.571205,-0.140405 0.636789,-0.313818 0.636789,-1.683787 v -1.327005 h -1.556595 -1.556595 l 0.0022,1.2382 c 0.0011,0.68101 0.05438,1.3205 0.118194,1.421089 0.06381,0.100588 0.301634,0.238392 0.528489,0.306231 0.295867,0.08847 -0.0076,0.123342 -1.073375,0.123342 -1.065809,0 -1.369242,-0.03487 -1.073375,-0.123342 z m 10.507145,-0.152492 c 0.368003,-0.17858 0.908922,-0.675262 1.439693,-1.321952 1.3346,-1.626078 1.29918,-1.430519 0.47725,-2.634971 -0.851269,-1.247447 -1.398735,-1.79735 -1.955152,-1.963856 -0.29036,-0.08689 0.04382,-0.123551 1.146831,-0.125814 1.065587,-0.0022 1.456162,0.03718 1.2382,0.124785 -0.175117,0.07039 -0.318394,0.210161 -0.318394,0.310605 0,0.219591 1.11392,1.951831 1.24928,1.942738 0.163184,-0.01096 1.439383,-1.720648 1.439383,-1.928297 0,-0.108387 -0.143277,-0.254657 -0.318394,-0.325046 -0.230055,-0.09247 -0.0043,-0.12893 0.813675,-0.131409 1.062397,-0.0032 1.105496,0.0081 0.700303,0.18463 -0.416574,0.181446 -2.327652,2.333145 -2.327652,2.620726 0,0.14107 1.524845,2.391384 1.961823,2.89519 0.127357,0.146835 0.422597,0.3513 0.656086,0.454365 0.385973,0.170372 0.289593,0.187077 -1.061315,0.183958 -1.029144,-0.0024 -1.387977,-0.04277 -1.167446,-0.131409 0.175117,-0.07039 0.318395,-0.24215 0.318395,-0.38169 0,-0.279968 -1.212251,-2.161055 -1.392674,-2.161055 -0.129237,0 -1.549385,1.739269 -1.663976,2.037887 -0.04155,0.108287 0.07025,0.299011 0.248458,0.423831 0.307979,0.215718 0.264695,0.226595 -0.874922,0.219892 l -1.198933,-0.007 0.589481,-0.286054 z m 11.739343,0.146457 c 0.492177,-0.142699 0.619213,-0.489267 0.619213,-1.689281 0,-0.610985 -0.11057,-0.84 -1.157074,-2.396541 -0.63639,-0.94655 -1.320938,-1.810106 -1.521218,-1.919015 -0.331753,-0.180401 -0.238271,-0.197264 1.050943,-0.189575 0.787906,0.0047 1.25862,0.05198 1.062058,0.10667 -0.194165,0.05403 -0.374634,0.210421 -0.401041,0.347543 -0.04734,0.245842 1.44494,2.639205 1.64557,2.639205 0.164413,0 1.5849,-2.32655 1.5849,-2.595834 0,-0.133902 -0.143277,-0.301048 -0.318394,-0.371437 -0.230055,-0.09247 -0.0043,-0.12893 0.813674,-0.131409 1.090763,-0.0033 1.115473,0.0038 0.677215,0.194338 -0.33326,0.144902 -0.739917,0.629445 -1.521217,1.812574 l -1.066364,1.614803 0.0022,1.047437 c 0.0025,1.195246 0.07405,1.365316 0.646683,1.536557 0.29565,0.08841 -0.0083,0.123172 -1.073375,0.122744 -1.119354,-4.25e-4 -1.376795,-0.03222 -1.043739,-0.128779 z"
           style="fill:#000000;stroke-width:0.141509" />
      </g>
    </clipPath>
  </defs>
  <sodipodi:namedview
     inkscape:window-maximized="0"
     inkscape:window-y="0"
     inkscape:window-x="28"
     inkscape:window-height="778"
     inkscape:window-width="1251"
     showgrid="false"
     inkscape:document-rotation="0"
     inkscape:current-layer="layer1"
     inkscape:document-units="mm"
     inkscape:cy="238.52311"
     inkscape:cx="420.62517"
     inkscape:zoom="1.0346895"
     inkscape:pageshadow="2"
     inkscape:pageopacity="0.0"
     borderopacity="1.0"
     bordercolor="#666666"
     pagecolor="#ffffff"
     id="base" />
  <metadata
     id="metadata5">
    <rdf:RDF>
      <cc:Work
         rdf:about="">
        <dc:format>image/svg+xml</dc:format>
        <dc:type
           rdf:resource="http://purl.org/dc/dcmitype/StillImage" />
        <dc:title></dc:title>
      </cc:Work>
    </rdf:RDF>
  </metadata>
  <g
     transform="translate(-8.8901688,-163.23783)"
     id="layer1"
     inkscape:groupmode="layer"
     inkscape:label="Capa 1">
    <ellipse
       ry="44.438244"
       rx="44.828045"
       cy="223.46625"
       cx="78.783958"
       id="path35"
       style="fill:none;fill-opacity:0.2;stroke:#ffdc55;stroke-width:1.43466;stroke-linejoin:round;stroke-miterlimit:4;stroke-dasharray:none;stroke-dashoffset:0;stroke-opacity:0.681452" />
    <ellipse
       style="fill:none;fill-opacity:0.2;stroke:#ffdc55;stroke-width:1.43466;stroke-linejoin:round;stroke-miterlimit:4;stroke-dasharray:none;stroke-dashoffset:0;stroke-opacity:0.681452"
       id="path35-5"
       cx="123.33858"
       cy="223.17392"
       rx="44.828045"
       ry="44.438248" />
    <path
       id="path1043"
       d="m 99.675522,186.85648 c -1.894906,0.89503 -3.7113,1.95006 -5.427912,3.15169 -0.741768,0.51924 -1.811106,1.9862 -2.451312,2.62641 -0.607462,0.60746 -1.277936,1.01515 -1.750936,1.75093 -0.91904,1.42962 -1.728754,2.9411 -2.626408,4.37734 -0.30933,0.49494 -0.771082,0.88838 -1.050562,1.40075 -0.712537,1.30633 -1.237727,2.70791 -1.926032,4.02717 -0.314841,0.60344 -0.782444,1.12532 -1.050561,1.75093 -0.20196,0.47125 -0.110029,1.35795 -0.350189,1.75093 -0.893782,1.46256 -2.244735,3.25596 -2.976594,4.90263 -0.876415,1.97194 -0.764973,4.204 -0.875468,6.30338 -0.0967,1.83737 -0.567988,3.7517 -0.350187,5.603 0.06287,0.53441 0.290764,1.04104 0.350187,1.57585 0.05801,0.52206 -0.03494,1.05171 0,1.57583 0.08814,1.32217 0.340917,3.77498 0.525282,4.72754 0.150847,0.77938 0.491501,1.51035 0.700375,2.27621 1.192714,4.37329 2.672872,10.4449 5.778092,13.83241 0.308024,0.33603 0.741376,0.54051 1.050564,0.87547 0.395877,0.42887 0.680976,0.94903 1.050562,1.40075 0.857675,1.04828 0.17864,0.004 1.225657,1.05056 0.04127,0.0412 -0.03696,0.12992 0,0.1751 1.696828,2.0739 1.446106,1.35919 2.976593,3.50187 0.442313,0.61924 0.769069,1.31725 1.225658,1.92603 0.949151,1.26554 2.747025,1.81125 4.027153,2.45132 0.35196,0.17598 0.675695,0.51293 1.050562,0.70038"
       style="fill:#ffffff;fill-opacity:0;stroke:#ffffff;stroke-width:4.78219;stroke-linecap:butt;stroke-linejoin:miter;stroke-miterlimit:4;stroke-dasharray:none;stroke-opacity:1" />
    <path
       id="path1049"
       d="m 99.675522,186.85648 c -0.09402,-0.35266 -0.234452,-0.69611 -0.282102,-1.05797 -0.0019,-0.0112 0.396559,0.12689 0.428332,0.14278 0.594208,0.2971 -0.152639,-0.01 0.142777,0.28556 0.05289,0.0528 0.995791,0.14278 1.142221,0.14278 0.18159,0 1.02664,0.11558 1.14222,0 0.12159,-0.1216 0.19555,-0.45472 0.42833,-0.57112 0.11423,-0.0571 0.31412,0.0571 0.42834,0 0.20376,-0.10188 0.50133,-0.28556 0.28555,-0.28556"
       style="fill:none;stroke:#ffffff;stroke-width:1.20989;stroke-linecap:butt;stroke-linejoin:miter;stroke-miterlimit:4;stroke-dasharray:none;stroke-opacity:1" />
    <path
       id="path1055"
       d="m 99.878574,186.47205 c 2.606066,-1.65211 1.162026,-0.87412 4.378546,-2.24569"
       style="fill:none;stroke:#ffffff;stroke-width:0.253057px;stroke-linecap:butt;stroke-linejoin:miter;stroke-opacity:1" />
    <path
       id="path1057"
       d="m 101.3964,185.965 c -0.18421,-0.0237 -0.37508,-0.0165 -0.5526,-0.0711 -0.0881,-0.0271 -0.14232,-0.11797 -0.22056,-0.16663 -0.10744,-0.0669 -0.25966,-0.14035 -0.37249,-0.19481 -0.0293,-0.0142 -0.0708,0.0331 -0.0968,0.0135 -0.0129,-0.01 0.006,-0.0386 -0.007,-0.0484 -0.0579,-0.0437 -0.924603,-0.3646 -0.938576,-0.36265"
       style="fill:none;stroke:#ffffff;stroke-width:0.253057px;stroke-linecap:butt;stroke-linejoin:miter;stroke-opacity:1" />
    <path
       id="path1059"
       d="m 103.39119,185.51295 c 0.65542,0.99641 1.14866,2.12094 1.96626,2.98924 0.36482,0.38745 0.99687,0.38438 1.45894,0.64842 0.57268,0.32724 1.08071,0.75649 1.62106,1.13473 1.77378,1.24165 3.27569,2.96408 4.53895,4.70106 0.58094,0.7988 0.80246,1.74618 1.29684,2.59368 1.06125,1.81929 2.15164,3.65486 3.08,5.51158 0.93547,1.87093 2.21222,3.54718 3.24211,5.34948 0.44162,0.77283 0.31706,1.95181 0.48631,2.7558 0.34687,1.64761 1.09503,3.22548 1.45895,4.86315 0.49309,2.21893 -0.0417,4.56709 0.16211,6.80843 0.13869,1.52566 0.71363,2.91606 0.48631,4.05263 -0.51346,2.56729 -1.34605,5.07232 -1.94526,7.61895 -0.4222,1.79438 0.0152,0.18755 -0.16211,1.78316 -0.19359,1.74237 -0.57469,3.76074 -1.29684,5.34948 -0.47038,1.03484 -1.23566,2.0632 -1.78316,3.08 -0.42406,0.78753 -0.66596,1.66982 -1.13474,2.43158 -0.36266,0.58933 -0.80753,1.13175 -1.29684,1.62105 -0.0854,0.0854 -0.24293,0.0727 -0.32421,0.16211 -1.23632,1.35995 -2.22682,2.92643 -3.72842,4.05263 -0.38596,0.28947 -0.4051,0.0302 -0.81053,0.48632 -0.68071,0.7658 -1.14545,1.60296 -1.94526,2.26947 -0.78565,0.65471 -1.7767,0.96747 -2.59369,1.62106 -0.4736,0.37887 -0.83341,0.84485 -1.13474,1.29684 -0.13404,0.20106 -0.49508,0.8193 -0.3242,0.64842 0.67417,-0.67418 -0.48868,0.32658 -0.64843,0.48632"
       style="fill:none;stroke:#ffffff;stroke-width:3.4097;stroke-linecap:butt;stroke-linejoin:miter;stroke-miterlimit:4;stroke-dasharray:none;stroke-opacity:1" />
    <path
       id="path1063"
       d="m 101.34578,260.71764 1.58708,0.88171 z"
       style="fill:none;stroke:#ffffff;stroke-width:0.253057px;stroke-linecap:butt;stroke-linejoin:miter;stroke-opacity:1" />
    <path
       id="path1065"
       d="m 99.49419,261.59935 1.85159,-0.88171 z"
       style="fill:none;stroke:#ffffff;stroke-width:0.253057px;stroke-linecap:butt;stroke-linejoin:miter;stroke-opacity:1" />
    <circle
       r="0.078503914"
       cy="260.89398"
       cx="99.009254"
       style="fill:#ffffff;stroke:#ffffff;stroke-width:0.253057"
       id="path1067" />
    <path
       id="path1075"
       d="m 98.087508,261.16332 2.901532,-1.24404 z"
       style="fill:none;stroke:#ffffff;stroke-width:2.07069;stroke-linecap:butt;stroke-linejoin:miter;stroke-miterlimit:4;stroke-dasharray:none;stroke-opacity:1" />
    <path
       style="fill:none;stroke:#ffffff;stroke-width:2.07069;stroke-linecap:butt;stroke-linejoin:miter;stroke-miterlimit:4;stroke-dasharray:none;stroke-opacity:1"
       d="m 101.54177,259.61703 2.7427,1.56336 z"
       id="path1075-7" />
    <path
       id="path1092"
       d="m 100.67004,186.65638 2.72115,-1.14343 z"
       style="fill:none;stroke:#ffffff;stroke-width:1.59247;stroke-linecap:butt;stroke-linejoin:miter;stroke-miterlimit:4;stroke-dasharray:none;stroke-opacity:1" />
    <ellipse
       ry="41.892185"
       rx="42.259651"
       cy="223.26451"
       cx="79.517372"
       id="path35-1-3"
       style="fill:#237ca0;fill-opacity:0.2;stroke:#237ca0;stroke-width:1.91288;stroke-linejoin:round;stroke-miterlimit:4;stroke-dasharray:none;stroke-dashoffset:0;stroke-opacity:1" />
    <ellipse
       style="fill:#674096;fill-opacity:0.2;stroke:#674096;stroke-width:1.91288;stroke-linejoin:round;stroke-miterlimit:4;stroke-dasharray:none;stroke-dashoffset:0;stroke-opacity:1"
       id="path35-5-8-3"
       cx="122.47351"
       cy="222.98894"
       rx="42.259651"
       ry="41.892185" />
    <text
       id="text877-58-3"
       y="226.34541"
       x="83.482864"
       style="font-style:oblique;font-variant:normal;font-weight:normal;font-stretch:normal;font-size:9.44748px;line-height:1.25;font-family:Helvetica;-inkscape-font-specification:'Helvetica Oblique';word-spacing:0px;mix-blend-mode:normal;fill:#000000;stroke-width:0.253455;stroke-miterlimit:4;stroke-dasharray:none"
       xml:space="preserve"><tspan
         style="font-style:oblique;font-variant:normal;font-weight:normal;font-stretch:normal;font-size:9.44748px;font-family:Helvetica;-inkscape-font-specification:'Helvetica Oblique';fill:#000000;stroke-width:0.253455;stroke-miterlimit:4;stroke-dasharray:none"
         y="226.34541"
         x="83.482864"
         id="tspan875-9-8"
         sodipodi:role="line">MI (X,Y)</tspan></text>
    <text
       xml:space="preserve"
       style="font-style:oblique;font-variant:normal;font-weight:normal;font-stretch:normal;font-size:9.44748px;line-height:1.25;font-family:Helvetica;-inkscape-font-specification:'Helvetica Oblique';word-spacing:0px;mix-blend-mode:normal;fill:#000000;stroke-width:0.253455;stroke-miterlimit:4;stroke-dasharray:none"
       x="127.12697"
       y="226.34541"
       id="text877-5-9-5"><tspan
         sodipodi:role="line"
         id="tspan875-4-9-8"
         x="127.12697"
         y="226.34541"
         style="font-style:oblique;font-variant:normal;font-weight:normal;font-stretch:normal;font-size:9.44748px;font-family:Helvetica;-inkscape-font-specification:'Helvetica Oblique';fill:#000000;stroke-width:0.253455;stroke-miterlimit:4;stroke-dasharray:none">H (Y|X)</tspan></text>
    <text
       xml:space="preserve"
       style="font-style:oblique;font-variant:normal;font-weight:normal;font-stretch:normal;font-size:9.44748px;line-height:1.25;font-family:Helvetica;-inkscape-font-specification:'Helvetica Oblique';word-spacing:0px;mix-blend-mode:normal;fill:#000000;stroke-width:0.253455;stroke-miterlimit:4;stroke-dasharray:none"
       x="43.491547"
       y="226.34541"
       id="text877-3-3-9"><tspan
         sodipodi:role="line"
         id="tspan875-0-3-6"
         x="43.491547"
         y="226.34541"
         style="font-style:oblique;font-variant:normal;font-weight:normal;font-stretch:normal;font-size:9.44748px;font-family:Helvetica;-inkscape-font-specification:'Helvetica Oblique';fill:#000000;stroke-width:0.253455;stroke-miterlimit:4;stroke-dasharray:none">H (X|Y)</tspan></text>
    <text
       id="text877-5-9-5-9"
       y="202.29225"
       x="171.93335"
       style="font-style:oblique;font-variant:normal;font-weight:normal;font-stretch:normal;font-size:9.44748px;line-height:1.25;font-family:Helvetica;-inkscape-font-specification:'Helvetica Oblique';word-spacing:0px;mix-blend-mode:normal;fill:#000000;stroke-width:0.253455;stroke-miterlimit:4;stroke-dasharray:none"
       xml:space="preserve"><tspan
         style="font-style:oblique;font-variant:normal;font-weight:normal;font-stretch:normal;font-size:9.44748px;font-family:Helvetica;-inkscape-font-specification:'Helvetica Oblique';fill:#000000;stroke-width:0.253455;stroke-miterlimit:4;stroke-dasharray:none"
         y="202.29225"
         x="171.93335"
         id="tspan875-4-9-8-2"
         sodipodi:role="line">H (Y)</tspan></text>
    <text
       xml:space="preserve"
       style="font-style:oblique;font-variant:normal;font-weight:normal;font-stretch:normal;font-size:9.44748px;line-height:1.25;font-family:Helvetica;-inkscape-font-specification:'Helvetica Oblique';word-spacing:0px;mix-blend-mode:normal;fill:#000000;stroke-width:0.253455;stroke-miterlimit:4;stroke-dasharray:none"
       x="8.1474714"
       y="202.29202"
       id="text877-5-9-5-9-1"><tspan
         sodipodi:role="line"
         id="tspan875-4-9-8-2-0"
         x="8.1474714"
         y="202.29202"
         style="font-style:oblique;font-variant:normal;font-weight:normal;font-stretch:normal;font-size:9.44748px;font-family:Helvetica;-inkscape-font-specification:'Helvetica Oblique';fill:#000000;stroke-width:0.253455;stroke-miterlimit:4;stroke-dasharray:none">H (X)</tspan></text>
    <text
       xml:space="preserve"
       style="font-style:oblique;font-variant:normal;font-weight:normal;font-stretch:normal;font-size:9.44748px;line-height:1.25;font-family:Helvetica;-inkscape-font-specification:'Helvetica Oblique';word-spacing:0px;mix-blend-mode:normal;fill:#000000;stroke-width:0.253455;stroke-miterlimit:4;stroke-dasharray:none"
       x="35.54493"
       y="283.45691"
       id="text877-58-3-5"><tspan
         sodipodi:role="line"
         id="tspan875-9-8-1"
         x="35.54493"
         y="283.45691"
         style="font-style:oblique;font-variant:normal;font-weight:normal;font-stretch:normal;font-size:9.44748px;font-family:Helvetica;-inkscape-font-specification:'Helvetica Oblique';fill:#000000;stroke-width:0.253455;stroke-miterlimit:4;stroke-dasharray:none">MI (X,Y) = H(X) + H(Y) - H(X,Y)</tspan></text>
    <text
       id="text877-58-3-5-1"
       y="170.12508"
       x="84.335449"
       style="font-style:oblique;font-variant:normal;font-weight:normal;font-stretch:normal;font-size:9.44748px;line-height:1.25;font-family:Helvetica;-inkscape-font-specification:'Helvetica Oblique';word-spacing:0px;mix-blend-mode:normal;fill:#000000;stroke-width:0.253455;stroke-miterlimit:4;stroke-dasharray:none"
       xml:space="preserve"><tspan
         style="font-style:oblique;font-variant:normal;font-weight:normal;font-stretch:normal;font-size:9.44748px;font-family:Helvetica;-inkscape-font-specification:'Helvetica Oblique';fill:#000000;stroke-width:0.253455;stroke-miterlimit:4;stroke-dasharray:none"
         y="170.12508"
         x="84.335449"
         id="tspan875-9-8-1-0"
         sodipodi:role="line">H (X,Y)</tspan></text>
    <path
       id="path1206"
       d="m 85.426975,173.32488 28.497245,-0.0146 z"
       style="fill:none;stroke:#ffdc55;stroke-width:0.923459;stroke-linecap:butt;stroke-linejoin:miter;stroke-miterlimit:4;stroke-dasharray:none;stroke-opacity:0.682353" />
    <path
       style="fill:none;stroke:#674096;stroke-width:0.917694;stroke-linecap:butt;stroke-linejoin:miter;stroke-miterlimit:4;stroke-dasharray:none;stroke-opacity:1"
       d="m 172.95192,205.65428 20.24399,-0.0202 z"
       id="path1206-0" />
    <path
       id="path1206-0-4"
       d="M 9.0521086,205.65405 29.2961,205.63385 Z"
       style="fill:none;stroke:#237ca0;stroke-width:0.917694;stroke-linecap:butt;stroke-linejoin:miter;stroke-miterlimit:4;stroke-dasharray:none;stroke-opacity:1" />
    <path
       id="path1206-0-2"
       d="m 164.2353,223.19892 19.36309,-0.0202 z"
       style="fill:none;stroke:#674096;stroke-width:0.897816;stroke-linecap:butt;stroke-linejoin:miter;stroke-miterlimit:4;stroke-dasharray:none;stroke-opacity:1" />
    <path
       style="fill:none;stroke:#674096;stroke-width:0.865262;stroke-linecap:butt;stroke-linejoin:miter;stroke-miterlimit:4;stroke-dasharray:none;stroke-opacity:1"
       d="m 183.1184,205.2034 0.0202,17.96407 z"
       id="path1206-0-7" />
    <path
       id="path1206-0-2-6"
       d="m 38.132409,223.19902 -19.363091,-0.0202 z"
       style="fill:none;stroke:#237ca0;stroke-width:0.897816;stroke-linecap:butt;stroke-linejoin:miter;stroke-miterlimit:4;stroke-dasharray:none;stroke-opacity:1" />
    <path
       style="fill:none;stroke:#237ca0;stroke-width:0.865262;stroke-linecap:butt;stroke-linejoin:miter;stroke-miterlimit:4;stroke-dasharray:none;stroke-opacity:1"
       d="m 19.249308,205.20349 -0.0202,17.96408 z"
       id="path1206-0-7-1" />
    <path
       id="path1206-0-7-5"
       d="m 100.53903,173.72329 0.033,10.66373 z"
       style="fill:none;stroke:#ffdc55;stroke-width:0.851997;stroke-linecap:butt;stroke-linejoin:miter;stroke-miterlimit:4;stroke-dasharray:none;stroke-opacity:0.682353" />
  </g>
</svg>
